# xmcd
#
# Track frame offsets: 
#        150
#        12866
#        25639
#        41734
#        57221
#        72545
#        84111
#        98781
#        113394
#        126268
#        139790
#        150875
#        162162
#        177459
#        190831
#        204835
#        215619
#        230917
#        244201
#        257725
#        273187
#
# Disc length: 3821 seconds
#
# Revision: 0
# Processed by: cddbd v1.5.2PL0 Copyright (c) Steve Scherf et al.
# Submitted via: ExactAudioCopy v0.95b3
#
DISCID=180eeb15
DTITLE=Jelly Roll Morton  - Volume 6 1929 Complete Edition
DYEAR=1900
DGENRE=
TTITLE0=Sweet Anita Mine
TTITLE1=Sweet Anita Mine
TTITLE2=New Orleans Bump
TTITLE3=Monrovia. A New Orleans Bump
TTITLE4=Down My Way
TTITLE5=Try Me Out
TTITLE6=Tank Town Bump
TTITLE7=Tank Town Bump
TTITLE8=Sweet Peter
TTITLE9=Sweet Peter
TTITLE10=Jersey Joe
TTITLE11=Jersey Joe
TTITLE12=Mississipi Mildred
TTITLE13=Mississipi Mildred
TTITLE14=Mint Julep
TTITLE15=You Oughta See My Gal
TTITLE16=Futuristic Blues
TTITLE17=Keep Your Business To Yourself
TTITLE18=Sh's Got What I Need
TTITLE19=I Hate A Man That You
TTITLE20=Don't Tell Me Nothin' 'Bout My Man
EXTD=
EXTT0=
EXTT1=
EXTT2=
EXTT3=
EXTT4=
EXTT5=
EXTT6=
EXTT7=
EXTT8=
EXTT9=
EXTT10=
EXTT11=
EXTT12=
EXTT13=
EXTT14=
EXTT15=
EXTT16=
EXTT17=
EXTT18=
EXTT19=
EXTT20=
PLAYORDER=
